<?xml version="1.0" standalone="no"?>
<!DOCTYPE svg PUBLIC "-//W3C//DTD SVG 20010904//EN"
 "http://www.w3.org/TR/2001/REC-SVG-20010904/DTD/svg10.dtd">
<svg version="1.0" xmlns="http://www.w3.org/2000/svg"
 width="24.000000pt" height="24.000000pt" viewBox="0 0 24.000000 24.000000"
 preserveAspectRatio="xMidYMid meet">

<g transform="translate(0.000000,24.000000) scale(0.100000,-0.100000)"
fill="#000000" stroke="none">
<path d="M0 185 c0 -54 0 -55 30 -55 17 0 30 -4 30 -10 0 -5 -13 -10 -30 -10
-30 0 -30 -1 -30 -55 l0 -55 55 0 c54 0 55 0 55 30 0 17 5 30 10 30 6 0 10
-13 10 -30 0 -30 1 -30 55 -30 l55 0 0 55 c0 54 0 55 -30 55 -16 0 -30 5 -30
10 0 6 14 10 30 10 30 0 30 1 30 55 l0 55 -54 0 c-34 0 -57 -5 -60 -12 -5 -10
-7 -10 -12 0 -3 7 -26 12 -60 12 l-54 0 0 -55z m84 23 c20 -28 20 -38 1 -38
-8 0 -15 -7 -15 -15 0 -19 -10 -19 -38 1 -25 17 -30 39 -7 30 8 -3 23 -9 32
-13 13 -5 15 -3 10 10 -4 9 -10 24 -13 32 -9 23 13 18 30 -7z m93 -11 c-18
-28 -39 -35 -30 -10 10 28 24 43 35 37 5 -3 3 -15 -5 -27z m-47 -7 c0 -5 -4
-10 -10 -10 -5 0 -10 5 -10 10 0 6 5 10 10 10 6 0 10 -4 10 -10z m89 -26 c-6
-8 -21 -14 -33 -14 -21 1 -21 1 3 20 25 22 49 17 30 -6z m-149 -77 c0 -15 -49
-41 -59 -32 -7 7 36 45 50 45 5 0 9 -6 9 -13z m149 -11 c19 -23 -5 -28 -30 -6
-24 19 -24 19 -3 20 12 0 27 -6 33 -14z m-119 -15 c0 -5 -8 -19 -18 -32 -23
-28 -37 -11 -16 19 15 22 34 29 34 13z m74 -13 c17 -24 11 -45 -9 -28 -16 13
-27 50 -15 50 5 0 16 -10 24 -22z"/>
<path d="M70 200 c6 -11 13 -20 16 -20 2 0 0 9 -6 20 -6 11 -13 20 -16 20 -2
0 0 -9 6 -20z"/>
</g>
</svg>
